<?xml version="1.0" encoding="utf-8"?>
<!-- Generator: Adobe Illustrator 17.1.0, SVG Export Plug-In . SVG Version: 6.00 Build 0)  -->
<!DOCTYPE svg PUBLIC "-//W3C//DTD SVG 1.1//EN" "http://www.w3.org/Graphics/SVG/1.1/DTD/svg11.dtd">
<svg version="1.1" id="Layer_1" xmlns="http://www.w3.org/2000/svg" xmlns:xlink="http://www.w3.org/1999/xlink" x="0px" y="0px"
	 viewBox="0 0 1024 600" enable-background="new 0 0 1024 600" xml:space="preserve">
<g id="ZOgeYZ.tif">
	<g>
		<path fill="#FFFFFF" d="M502.741,301.808c0-4.39-0.105-8.649,0.028-12.901c0.155-4.953,4.522-8.856,9.602-8.797
			c4.973,0.058,9.178,4.071,9.308,9.014c0.091,3.447,0.034,6.898,0.002,10.347c-0.007,0.735-0.196,1.469-0.302,2.208
			c0.974,0.508,1.998,0.93,2.902,1.533c4.465,2.979,6.676,7.332,7.457,12.514c0.132,0.876,0.191,1.771,0.186,2.656
			c-0.006,1.021-0.574,1.549-1.597,1.621c-0.248,0.017-0.498,0.006-0.746,0.006c-11.592,0-23.183,0.001-34.775,0
			c-1.962,0-2.405-0.411-2.29-2.401c0.34-5.862,2.401-10.867,7.412-14.304C500.854,302.667,501.922,302.237,502.741,301.808z
			 M495.73,316.958c10.99,0,21.985,0,33.154,0c-0.196-1.056-0.303-2.041-0.566-2.983c-1.15-4.117-3.301-7.447-7.405-9.198
			c-0.53-0.226-0.892-0.262-1.353,0.282c-4.061,4.78-10.654,4.764-14.739-0.018c-0.358-0.419-0.646-0.523-1.164-0.348
			C499.249,306.186,495.299,312.241,495.73,316.958z M505.698,294.377c0,1.564-0.021,3.128,0.004,4.692
			c0.06,3.755,2.905,6.585,6.564,6.552c3.605-0.033,6.432-2.88,6.465-6.561c0.028-3.128,0.026-6.256,0.001-9.384
			c-0.03-3.752-2.868-6.6-6.528-6.598c-3.673,0.002-6.453,2.817-6.503,6.607C505.68,291.249,505.697,292.813,505.698,294.377z"/>
	</g>
</g>
</svg>
