<?xml version="1.0" encoding="utf-8"?>
<!-- Generator: Adobe Illustrator 17.1.0, SVG Export Plug-In . SVG Version: 6.00 Build 0)  -->
<!DOCTYPE svg PUBLIC "-//W3C//DTD SVG 1.1//EN" "http://www.w3.org/Graphics/SVG/1.1/DTD/svg11.dtd">
<svg version="1.1" id="Layer_1" xmlns="http://www.w3.org/2000/svg" xmlns:xlink="http://www.w3.org/1999/xlink" x="0px" y="0px"
	 viewBox="0 0 50 50" enable-background="new 0 0 50 50" xml:space="preserve">
<g id="ID_1_">
	<path fill="#FFFFFF" d="M44.5,8.5h-39c-2.5,0-4.6,2.1-4.6,4.6v21.4c0,2.5,2,4.6,4.6,4.6h39c2.5,0,4.6-2.1,4.6-4.6V13
		C49.1,10.5,47,8.5,44.5,8.5z M5.5,11.5h39c0.8,0,1.5,0.7,1.5,1.5v1.1H3.9V13C3.9,12.2,4.6,11.5,5.5,11.5z M44.5,35.9h-39
		c-0.8,0-1.5-0.7-1.5-1.5V17.2H46v17.2C46,35.3,45.3,35.9,44.5,35.9z"/>
	<path fill="#FFFFFF" d="M7.2,29.6h11.2v-9.5H7.2V29.6z M10.2,23.2h5.1v3.4h-5.1C10.2,26.6,10.2,23.2,10.2,23.2z"/>
	<rect x="22.2" y="20.1" fill="#FFFFFF" width="12.4" height="3"/>
	<rect x="22.2" y="25.2" fill="#FFFFFF" width="8.4" height="3"/>
</g>
</svg>
