<?xml version="1.0" encoding="utf-8"?>
<!-- Generator: Adobe Illustrator 17.1.0, SVG Export Plug-In . SVG Version: 6.00 Build 0)  -->
<!DOCTYPE svg PUBLIC "-//W3C//DTD SVG 1.1//EN" "http://www.w3.org/Graphics/SVG/1.1/DTD/svg11.dtd">
<svg version="1.1" id="Layer_1" xmlns="http://www.w3.org/2000/svg" xmlns:xlink="http://www.w3.org/1999/xlink" x="0px" y="0px"
	 viewBox="0 0 100 100" enable-background="new 0 0 100 100" xml:space="preserve">
<g id="_x36_UfNPv.tif">
	<g>
		<path fill="#FFFFFF" d="M0.223,73.183c0-15.425,0-30.851,0-46.276c2.779-7.054,4.697-8.329,12.534-8.331
			c4.798-0.001,9.596,0,14.394,0c20.735,0.001,41.469-0.017,62.204,0.015c5.987,0.009,10.151,3.402,10.216,8.878
			c0.177,14.991,0.164,29.987,0.012,44.979c-0.053,5.219-4.168,8.943-9.386,8.95c-26.732,0.033-53.465,0.074-80.196-0.093
			c-2.183-0.014-4.716-1.138-6.428-2.546C1.995,77.461,1.304,75.084,0.223,73.183z M6.974,36.836
			c-0.045,0.952-0.112,1.708-0.113,2.465c-0.007,10.452-0.011,20.904,0,31.356c0.004,3.484,0.905,4.388,4.431,4.389
			c25.873,0.009,51.746,0.01,77.618-0.001c3.45-0.001,4.378-0.958,4.382-4.471c0.013-10.452,0.008-20.904-0.001-31.356
			c-0.001-0.748-0.084-1.496-0.136-2.382C64.43,36.836,35.854,36.836,6.974,36.836z M93.075,30.102
			c0.424-3.984-0.567-5.186-4.181-5.188c-25.867-0.011-51.733-0.011-77.6,0c-3.817,0.002-4.858,1.319-4.084,5.188
			C35.76,30.102,64.336,30.102,93.075,30.102z"/>
		<path fill="#FFFFFF" d="M13.599,61.991c0-6.49,0-12.866,0-19.394c7.652,0,15.143,0,22.851,0c0,6.409,0,12.775,0,19.394
			C28.982,61.991,21.437,61.991,13.599,61.991z M19.943,49.074c0,2.233,0,4.314,0,6.546c3.413,0,6.688,0,10.019,0
			c0-2.281,0-4.423,0-6.546C26.515,49.074,23.304,49.074,19.943,49.074z"/>
		<path fill="#FFFFFF" d="M44.519,48.71c0-2.094,0-4.022,0-6.108c8.47,0,16.792,0,25.294,0c0,2.056,0,3.975,0,6.108
			C61.434,48.71,53.118,48.71,44.519,48.71z"/>
		<path fill="#FFFFFF" d="M44.498,59.169c0-1.99,0-3.841,0-5.912c5.631,0,11.221,0,17.04,0c0,1.869,0,3.77,0,5.912
			C55.971,59.169,50.389,59.169,44.498,59.169z"/>
	</g>
</g>
</svg>
