<?xml version="1.0" encoding="utf-8"?>
<!-- Generator: Adobe Illustrator 17.1.0, SVG Export Plug-In . SVG Version: 6.00 Build 0)  -->
<!DOCTYPE svg PUBLIC "-//W3C//DTD SVG 1.1//EN" "http://www.w3.org/Graphics/SVG/1.1/DTD/svg11.dtd">
<svg version="1.1" id="Layer_1" xmlns="http://www.w3.org/2000/svg" xmlns:xlink="http://www.w3.org/1999/xlink" x="0px" y="0px"
	 viewBox="0 0 100 100" enable-background="new 0 0 100 100" xml:space="preserve">
<g id="gY6z9Z.tif_3_">
	<g>
		<path fill="#45B29D" d="M49.6,58.4c7.6-7.6,14.7-15,22.1-22.1c1-1,3.2-1.8,4.3-1.4c2.4,1.1,3.3,3.2,1,5.5
			c-8.3,8.4-16.7,16.8-25,25.2c-1.8,1.8-3.4,1.7-5.2-0.1C38.7,57.3,30.5,49.1,22.4,41c-1.8-1.8-2.6-3.4-0.4-5.5
			c2.3-2.2,3.8-0.8,5.4,0.8C33.6,42.5,39.8,48.8,46,55C47,56,48.1,56.9,49.6,58.4z"/>
	</g>
</g>
</svg>
