<?xml version="1.0" encoding="utf-8"?>
<!-- Generator: Adobe Illustrator 17.1.0, SVG Export Plug-In . SVG Version: 6.00 Build 0)  -->
<!DOCTYPE svg PUBLIC "-//W3C//DTD SVG 1.1//EN" "http://www.w3.org/Graphics/SVG/1.1/DTD/svg11.dtd">
<svg version="1.1" id="Layer_1" xmlns="http://www.w3.org/2000/svg" xmlns:xlink="http://www.w3.org/1999/xlink" x="0px" y="0px"
	 viewBox="0 0 1024 600" enable-background="new 0 0 1024 600" xml:space="preserve">
<circle fill="#F6921E" cx="447.543" cy="267.111" r="18.963"/>
<g id="gY6z9Z.tif_3_">
	<g>
		<path fill="#FFFFFF" d="M447.604,270.292c2.874-2.896,5.587-5.671,8.366-8.378c0.378-0.368,1.231-0.694,1.62-0.514
			c0.893,0.415,1.264,1.216,0.384,2.1c-3.164,3.181-6.332,6.357-9.49,9.545c-0.689,0.696-1.287,0.633-1.958-0.046
			c-3.076-3.114-6.166-6.214-9.266-9.304c-0.676-0.673-0.968-1.288-0.164-2.083c0.863-0.852,1.443-0.312,2.061,0.308
			c2.356,2.364,4.719,4.722,7.083,7.078C446.622,269.378,447.021,269.74,447.604,270.292z"/>
	</g>
</g>
</svg>
