<?xml version="1.0" encoding="utf-8"?>
<!-- Generator: Adobe Illustrator 17.1.0, SVG Export Plug-In . SVG Version: 6.00 Build 0)  -->
<!DOCTYPE svg PUBLIC "-//W3C//DTD SVG 1.1//EN" "http://www.w3.org/Graphics/SVG/1.1/DTD/svg11.dtd">
<svg version="1.1" id="Layer_1" xmlns="http://www.w3.org/2000/svg" xmlns:xlink="http://www.w3.org/1999/xlink" x="0px" y="0px"
	 viewBox="0 0 100 100" enable-background="new 0 0 100 100" xml:space="preserve">
<rect fill="#1B75BB" width="100" height="100"/>
<g id="fcBImw.tif_2_">
	<g>
		<path fill="#FFFFFF" d="M83.609,34.998c0,10.007,0,20.014,0,30.021c-1.731,4.869-2.936,5.717-8.124,5.717
			c-16.56,0-33.119,0.002-49.679-0.002c-4.589-0.001-6.932-2.349-6.936-6.951c-0.007-8.813-0.002-17.626-0.002-26.439
			c0-5.032,0.818-6.261,5.373-8.08c17.99,0,35.98,0,53.97,0C81.127,30.125,82.944,32.019,83.609,34.998z M26.698,66.58
			c16.696,0,32.877,0,49.401,0c-0.606-0.572-0.981-0.948-1.378-1.298c-5.686-5.012-11.403-9.989-17.038-15.057
			c-1.112-1-1.985-1.255-3.134-0.233c-2.218,1.972-4.461,2.055-6.721,0.045c-0.917-0.816-1.674-0.647-2.595,0.193
			c-3.36,3.064-6.807,6.032-10.221,9.036C32.363,61.596,29.714,63.926,26.698,66.58z M28.692,33.587
			c0.531,0.424,0.678,0.57,0.85,0.674c6.927,4.175,13.847,8.361,20.807,12.48c0.436,0.258,1.316,0.196,1.775-0.077
			c6.808-4.045,13.58-8.15,20.356-12.25c0.283-0.171,0.513-0.428,0.981-0.827C58.485,33.587,43.831,33.587,28.692,33.587z
			 M23.093,35.154c0,9.863,0,19.352,0,29.135c6.665-5.86,13.095-11.513,19.672-17.296C36.122,42.995,29.702,39.131,23.093,35.154z
			 M59.901,46.785c6.487,5.702,12.777,11.23,19.303,16.966c0-9.659,0-18.973,0-28.588C72.702,39.079,66.397,42.874,59.901,46.785z"
			/>
	</g>
</g>
</svg>
