<?xml version="1.0" encoding="utf-8"?>
<!-- Generator: Adobe Illustrator 17.1.0, SVG Export Plug-In . SVG Version: 6.00 Build 0)  -->
<!DOCTYPE svg PUBLIC "-//W3C//DTD SVG 1.1//EN" "http://www.w3.org/Graphics/SVG/1.1/DTD/svg11.dtd">
<svg version="1.1" id="Layer_1" xmlns="http://www.w3.org/2000/svg" xmlns:xlink="http://www.w3.org/1999/xlink" x="0px" y="0px"
	 viewBox="0 0 50 50" enable-background="new 0 0 50 50" xml:space="preserve">
<g id="email_1_">
	<path fill="#FFFFFF" d="M44.4,8.9H5.5c-2.5,0-4.4,2-4.4,4.4V35c0,2.5,2,4.4,4.4,4.4h38.9c2.5,0,4.4-2,4.4-4.4V13.3
		C48.8,10.9,46.8,8.9,44.4,8.9z M25,22.1L7.9,11.9H42L25,22.1z M4.1,13l14.7,8.9L4,34.9V13.3C4,13.2,4.1,13.1,4.1,13z M21.5,23.5
		l2.7,1.6c0,0,0,0,0,0c0.2,0.1,0.5,0.2,0.7,0.2c0.3,0,0.5-0.1,0.7-0.2c0,0,0,0,0,0l3-1.8l14.9,13.2h-37L21.5,23.5z M31.4,21.7
		L45.8,13c0,0.1,0.1,0.2,0.1,0.3v21.2L31.4,21.7z"/>
</g>
</svg>
