<?xml version="1.0" encoding="utf-8"?>
<!-- Generator: Adobe Illustrator 17.1.0, SVG Export Plug-In . SVG Version: 6.00 Build 0)  -->
<!DOCTYPE svg PUBLIC "-//W3C//DTD SVG 1.1//EN" "http://www.w3.org/Graphics/SVG/1.1/DTD/svg11.dtd">
<svg version="1.1" id="Layer_1" xmlns="http://www.w3.org/2000/svg" xmlns:xlink="http://www.w3.org/1999/xlink" x="0px" y="0px"
	 viewBox="0 0 100 100" enable-background="new 0 0 100 100" xml:space="preserve">
<g>
	<rect fill="#3A5A98" width="100" height="100"/>
	<g id="SEPL9y.tif">
		<g>
			<path fill="#FFFFFF" d="M57.415,22.637c2.45,0.536,4.895,1.093,7.352,1.598c0.977,0.201,1.174,0.638,0.96,1.616
				c-0.662,3.033-1.204,6.092-1.809,9.225c-1.541-0.271-2.92-0.558-4.312-0.75c-3.752-0.516-4.393,0.099-4.125,4.058
				c2.412,0,4.846,0,7.424,0c0,3.969,0,7.757,0,11.732c-2.439,0-4.874,0-7.472,0c0,10.335,0,20.486,0,30.769
				c-4.671,0-9.174,0-13.87,0c0-10.206,0-20.355,0-30.689c-1.962,0-3.739,0-5.651,0c0-3.968,0-7.752,0-11.706
				c1.837,0,3.622,0,5.549,0c0.066-1.512,0.116-2.865,0.186-4.217c0.334-6.387,3.84-10.232,10.252-11.269
				c0.53-0.086,1.048-0.245,1.572-0.37C54.787,22.637,56.101,22.637,57.415,22.637z M39.412,46.641c1.939,0,3.672,0,5.644,0
				c0,10.325,0,20.513,0,30.678c2.397,0,4.547,0,6.861,0c0-10.297,0-20.445,0-30.781c2.602,0,5.036,0,7.487,0
				c0-1.584,0-2.976,0-4.552c-2.547,0-4.979,0-7.561,0c0-1.813-0.021-3.442,0.01-5.07c0.012-0.652,0.09-1.311,0.219-1.95
				c0.52-2.57,1.797-3.829,4.411-4.097c1.5-0.154,3.029-0.028,4.666-0.028c0.228-1.255,0.439-2.417,0.728-4.007
				c-2.624-0.185-5.062-0.615-7.469-0.479c-6.943,0.392-9.226,3.247-9.292,9.148c-0.012,1.039-0.067,2.077-0.081,3.116
				c-0.015,1.076-0.003,2.152-0.003,3.407c-1.992,0-3.769,0-5.619,0C39.412,43.606,39.412,44.999,39.412,46.641z"/>
		</g>
	</g>
</g>
</svg>
