<?xml version="1.0" encoding="utf-8"?>
<!-- Generator: Adobe Illustrator 17.1.0, SVG Export Plug-In . SVG Version: 6.00 Build 0)  -->
<!DOCTYPE svg PUBLIC "-//W3C//DTD SVG 1.1//EN" "http://www.w3.org/Graphics/SVG/1.1/DTD/svg11.dtd">
<svg version="1.1" id="Layer_1" xmlns="http://www.w3.org/2000/svg" xmlns:xlink="http://www.w3.org/1999/xlink" x="0px" y="0px"
	 viewBox="0 0 100 100" enable-background="new 0 0 100 100" xml:space="preserve">
<rect fill="#5280A4" width="100" height="100"/>
<g id="IiR9Jv.tif_2_">
	<g>
		<path fill="#FFFFFF" d="M51.026,64.879c7.662-0.049,13.582-5.917,13.675-13.555c0.095-7.813-6.053-13.969-13.897-13.914
			c-7.612,0.053-13.597,5.995-13.67,13.572C37.058,58.862,43.123,64.93,51.026,64.879z"/>
		<path fill="#FFFFFF" d="M80.823,50.239c-0.001,5.097,0.092,10.197-0.022,15.291c-0.203,9.158-4.94,14.076-13.967,14.213
			c-10.57,0.16-21.145,0.153-31.715,0.004c-9.103-0.129-13.944-4.986-14.067-14.094c-0.143-10.57-0.153-21.146,0.004-31.715
			c0.132-8.855,4.811-13.732,13.657-13.942c10.755-0.255,21.524-0.25,32.28-0.005c9.112,0.208,13.624,5.096,13.811,14.391
			C80.911,39.665,80.824,44.953,80.823,50.239z M77.16,41.776c-2.678,0-4.905-0.1-7.121,0.023c-3.676,0.204-6.738-0.514-9.863-2.988
			c-5.632-4.459-13.609-4.056-19.445,0.622c-2.275,1.824-4.47,2.465-7.213,2.375c-2.921-0.096-5.851,0.063-8.945,0.113
			c0,8.959-0.164,17.088,0.059,25.206c0.142,5.178,3.455,8.864,8.415,8.971c11.904,0.257,23.821,0.233,35.727,0.009
			c4.537-0.085,8.115-3.403,8.288-7.838C77.398,59.648,77.16,51.003,77.16,41.776z M61.989,28.016c0,3.518,0,6.254,0,9.296
			c3.274,0,6.146,0,9.211,0c0-3.296,0-6.148,0-9.296C67.982,28.016,65.258,28.016,61.989,28.016z"/>
	</g>
</g>
</svg>
