<?xml version="1.0" encoding="utf-8"?>
<!-- Generator: Adobe Illustrator 17.1.0, SVG Export Plug-In . SVG Version: 6.00 Build 0)  -->
<!DOCTYPE svg PUBLIC "-//W3C//DTD SVG 1.1//EN" "http://www.w3.org/Graphics/SVG/1.1/DTD/svg11.dtd">
<svg version="1.1" id="Layer_1" xmlns="http://www.w3.org/2000/svg" xmlns:xlink="http://www.w3.org/1999/xlink" x="0px" y="0px"
	 viewBox="0 0 100 100" enable-background="new 0 0 100 100" xml:space="preserve">
<g>
	<path fill="#FFFFFF" d="M50.1,75.4c-11.6,0-21-9.4-21-21c0-11.6,9.4-21,21-21c11.6,0,21,9.4,21,21S61.7,75.4,50.1,75.4L50.1,75.4z
		 M50.1,39.1c-8.4,0-15.3,6.9-15.3,15.3c0,8.4,6.9,15.3,15.3,15.3c8.4,0,15.3-6.9,15.3-15.3C65.4,46,58.5,39.1,50.1,39.1L50.1,39.1z
		"/>
	<path fill="#FFFFFF" d="M89,20H38.4v-3.6c0-2.9-2.4-5.3-5.3-5.3h-17c-2.9,0-5.3,2.4-5.3,5.3V20c-5.9,0.2-10.6,5-10.6,11v46.9
		c0,6.1,4.9,11,11,11H89c6.1,0,11-4.9,11-11V30.9C100,24.9,95,20,89,20z M94.2,77.8c0,2.9-2.4,5.3-5.3,5.3H11.2
		c-2.9,0-5.3-2.4-5.3-5.3V30.9c0-2.9,2.4-5.3,5.3-5.3h1.6c0,0,3.7,0.1,3.7-3.7c0-3.8,0-1.4,0-1.4v-3.8h3.7h8.7h3.8l0,3.8
		c0,0,0-2.4,0,1.4c0,3.8,3.7,3.7,3.7,3.7H89c2.9,0,5.3,2.4,5.3,5.3L94.2,77.8L94.2,77.8z"/>
</g>
</svg>
