<?xml version="1.0" encoding="utf-8"?>
<!-- Generator: Adobe Illustrator 17.1.0, SVG Export Plug-In . SVG Version: 6.00 Build 0)  -->
<!DOCTYPE svg PUBLIC "-//W3C//DTD SVG 1.1//EN" "http://www.w3.org/Graphics/SVG/1.1/DTD/svg11.dtd">
<svg version="1.1" id="Layer_1" xmlns="http://www.w3.org/2000/svg" xmlns:xlink="http://www.w3.org/1999/xlink" x="0px" y="0px"
	 viewBox="0 0 100 100" enable-background="new 0 0 100 100" xml:space="preserve">
<g id="PB0MK2.tif">
	<g>
		<path fill="#FFFFFF" d="M97.619,0c0,6.863,0,13.726,0,21.429c-32.003,0-63.621,0-95.238,0c0-7.107,0-14.213,0-21.429
			C34.127,0,65.873,0,97.619,0z"/>
		<path fill="#FFFFFF" d="M2.381,39.286c31.619,0,63.238,0,95.204,0c0,7.401,0,14.013,0,21.429c-31.966,0-63.585,0-95.204,0
			C2.381,53.571,2.381,46.429,2.381,39.286z"/>
		<path fill="#FFFFFF" d="M2.381,78.571c31.618,0,63.237,0,95.238,0c0,7.701,0,14.565,0,21.429c-31.746,0-63.492,0-95.238,0
			C2.381,92.785,2.381,85.678,2.381,78.571z"/>
	</g>
</g>
</svg>
