<?xml version="1.0" encoding="utf-8"?>
<!-- Generator: Adobe Illustrator 17.1.0, SVG Export Plug-In . SVG Version: 6.00 Build 0)  -->
<!DOCTYPE svg PUBLIC "-//W3C//DTD SVG 1.1//EN" "http://www.w3.org/Graphics/SVG/1.1/DTD/svg11.dtd">
<svg version="1.1" id="Layer_1" xmlns="http://www.w3.org/2000/svg" xmlns:xlink="http://www.w3.org/1999/xlink" x="0px" y="0px"
	 viewBox="0 0 50 50" enable-background="new 0 0 50 50" xml:space="preserve">
<g id="case_x5F_2">
	<path fill="#FFFFFF" d="M45.4,14.8h-7.1v-1.2c0-2.1-1.7-3.7-3.8-3.7H17c-2.1,0-3.8,1.7-3.8,3.7v1.2H4.8c-2.1,0-3.8,1.7-3.8,3.8v0.5
		h0v5c0,0,0,0,0,0v15.5c0,2.1,1.7,3.8,3.8,3.8h40.6c2.1,0,3.8-1.7,3.8-3.8V18.6C49.2,16.5,47.5,14.8,45.4,14.8z M15.8,13.6
		c0-0.7,0.6-1.2,1.3-1.2h17.4c0.7,0,1.3,0.5,1.3,1.2v1.2h-20V13.6z M4.8,17.4h40.6c0.7,0,1.3,0.6,1.3,1.3v0.5h0v5c0,2-3,3.7-6.4,3.7
		H9.9c-3.4,0-6.3-1.7-6.4-3.7v-5.6C3.5,17.9,4.1,17.4,4.8,17.4z M34.8,30.4h2.9v1.2c0,0.8-0.7,1.5-1.5,1.5s-1.5-0.7-1.5-1.5
		L34.8,30.4L34.8,30.4z M13,30.4h2.9v1.2c0,0.8-0.6,1.4-1.4,1.4c-0.8,0-1.5-0.6-1.5-1.4V30.4z M45.4,41H4.8c-0.7,0-1.3-0.6-1.3-1.3
		V28.6c1.6,1.1,3.9,1.8,6.4,1.8h0.6v1.2c0,2.2,1.8,4,4,4c2.2,0,4-1.8,4-4v-1.2h13.7v1.2c0,2.2,1.8,4,4,4c2.2,0,4-1.8,4-4v-1.2h0
		c2.5,0,4.8-0.7,6.4-1.9v11.1C46.7,40.4,46.1,41,45.4,41z"/>
	<rect x="11.1" y="23.6" fill="#FFFFFF" width="6.9" height="2.6"/>
	<rect x="32.8" y="23.6" fill="#FFFFFF" width="6.9" height="2.6"/>
</g>
</svg>
