<?xml version="1.0" encoding="utf-8"?>
<!-- Generator: Adobe Illustrator 17.1.0, SVG Export Plug-In . SVG Version: 6.00 Build 0)  -->
<!DOCTYPE svg PUBLIC "-//W3C//DTD SVG 1.1//EN" "http://www.w3.org/Graphics/SVG/1.1/DTD/svg11.dtd">
<svg version="1.1" id="Layer_1" xmlns="http://www.w3.org/2000/svg" xmlns:xlink="http://www.w3.org/1999/xlink" x="0px" y="0px"
	 viewBox="0 0 100 100" enable-background="new 0 0 100 100" xml:space="preserve">
<g>
	<g id="mjJzzn.tif">
		<g>
			<path fill="#FFFFFF" d="M77.618,25.35c4.232,0,8.52-0.006,12.807,0.002c6.628,0.012,9.569,2.981,9.571,9.671
				c0.005,13.539,0.008,27.077-0.002,40.616c-0.004,6.352-2.962,9.299-9.36,9.3c-27.077,0.009-54.154,0.008-81.232,0
				c-6.438-0.002-9.379-2.905-9.386-9.264C0,62.051-0.008,48.426,0.011,34.801c0.009-6.485,3.014-9.437,9.528-9.449
				c5.155-0.009,10.31-0.002,15.325-0.002c0.224-0.391,0.386-0.541,0.378-0.68c-0.395-6.507,3.892-9.76,10.274-9.611
				c9.998,0.234,20.005,0.062,30.008,0.062C74.659,15.122,76.129,16.334,77.618,25.35z M50.047,30.822
				c-13.537,0-27.074-0.008-40.611,0.005c-3.329,0.003-3.971,0.644-4.003,3.892c-0.025,2.5-0.007,5.001-0.006,7.501
				c0.002,5.048,1.393,7.238,6.142,8.902c2.001,0.701,4.192,1.196,6.298,1.204c21.383,0.087,42.767,0.155,64.149-0.06
				c3.036-0.03,6.172-1.326,9.05-2.54c2.448-1.032,3.614-3.28,3.495-6.111c-0.113-2.668-0.022-5.345-0.021-8.018
				c0.002-4.41-0.345-4.774-4.657-4.775C76.604,30.819,63.325,30.822,50.047,30.822z M36.625,58.026
				c-1.093,7.467-3.551,10.665-8.435,10.522c-1.779-0.052-3.744-0.783-5.246-1.775c-3.018-1.993-3.499-5.303-3.284-8.116
				c-4.993-1.282-9.567-2.457-14.222-3.652c0,7.071-0.019,14.307,0.01,21.543c0.01,2.525,1.634,3.08,3.823,3.078
				c27.156-0.024,54.313-0.011,81.47-0.022c3.045-0.001,3.782-0.752,3.8-3.854c0.031-5.345,0.01-10.69,0.01-16.035
				c0-1.673,0-3.346,0-4.774c-4.507,1.231-8.687,2.373-12.975,3.544c-0.997,6.971-3.415,9.991-8.311,10.15
				c-4.844,0.157-7.241-2.659-8.943-10.609C55.163,58.026,45.972,58.026,36.625,58.026z M71.75,25.248
				c0.397-3.773-0.314-4.634-3.73-4.638c-11.192-0.012-22.384-0.015-33.576,0.003c-3.309,0.005-4.119,1.138-3.333,4.635
				C44.581,25.248,58.074,25.248,71.75,25.248z M69.586,58.035c0.7,1.777,1.004,3.375,1.908,4.486
				c0.437,0.537,2.201,0.541,3.013,0.116c1.81-0.947,1.621-2.764,1.38-4.603C73.934,58.035,72.171,58.035,69.586,58.035z
				 M25.375,58.027c-0.268,0.214-0.535,0.428-0.803,0.642c0.724,1.399,1.235,2.999,2.274,4.101c0.428,0.454,2.532,0.206,2.924-0.37
				c0.796-1.169,0.945-2.778,1.409-4.373C28.759,58.027,27.067,58.027,25.375,58.027z"/>
			<path fill="#FFFFFF" d="M65.946,48.877c4.813,0,9.477,0,14.22,0c0-1.775,0-3.371,0-5.105c-4.798,0-9.468,0-14.22,0
				C65.946,45.556,65.946,47.149,65.946,48.877z M21.021,43.73c0,1.918,0,3.506,0,5.104c4.847,0,9.508,0,14.144,0
				c0-1.813,0-3.403,0-5.104C30.377,43.73,25.777,43.73,21.021,43.73z"/>
			<path fill="#FFFFFF" d="M65.946,48.877c0-1.728,0-3.321,0-5.105c4.752,0,9.421,0,14.22,0c0,1.734,0,3.33,0,5.105
				C75.424,48.877,70.76,48.877,65.946,48.877z"/>
			<path fill="#FFFFFF" d="M21.021,43.73c4.756,0,9.356,0,14.144,0c0,1.702,0,3.291,0,5.104c-4.635,0-9.297,0-14.144,0
				C21.021,47.237,21.021,45.648,21.021,43.73z"/>
		</g>
	</g>
</g>
</svg>
