<?xml version="1.0" encoding="utf-8"?>
<!-- Generator: Adobe Illustrator 17.1.0, SVG Export Plug-In . SVG Version: 6.00 Build 0)  -->
<!DOCTYPE svg PUBLIC "-//W3C//DTD SVG 1.1//EN" "http://www.w3.org/Graphics/SVG/1.1/DTD/svg11.dtd">
<svg version="1.1" id="Layer_1" xmlns="http://www.w3.org/2000/svg" xmlns:xlink="http://www.w3.org/1999/xlink" x="0px" y="0px"
	 viewBox="0 0 100 100" enable-background="new 0 0 100 100" xml:space="preserve">
<g>
	<g id="mjJzzn.tif">
		<g>
			<path fill="#FFFFFF" d="M77.6,25.4c4.2,0,8.5,0,12.8,0c6.6,0,9.6,3,9.6,9.7c0,13.5,0,27.1,0,40.6c0,6.4-3,9.3-9.4,9.3
				c-27.1,0-54.2,0-81.2,0C3,84.9,0,82,0,75.7c0-13.6,0-27.2,0-40.9c0-6.5,3-9.4,9.5-9.4c5.2,0,10.3,0,15.3,0
				c0.2-0.4,0.4-0.5,0.4-0.7c-0.4-6.5,3.9-9.8,10.3-9.6c10,0.2,20,0.1,30,0.1C74.7,15.1,76.1,16.3,77.6,25.4z M50,30.8
				c-13.5,0-27.1,0-40.6,0c-3.3,0-4,0.6-4,3.9c0,2.5,0,5,0,7.5c0,5,1.4,7.2,6.1,8.9c2,0.7,4.2,1.2,6.3,1.2
				c21.4,0.1,42.8,0.2,64.1-0.1c3,0,6.2-1.3,9.1-2.5c2.4-1,3.6-3.3,3.5-6.1c-0.1-2.7,0-5.3,0-8c0-4.4-0.3-4.8-4.7-4.8
				C76.6,30.8,63.3,30.8,50,30.8z M36.6,58c-1.1,7.5-3.6,10.7-8.4,10.5c-1.8-0.1-3.7-0.8-5.2-1.8c-3-2-3.5-5.3-3.3-8.1
				c-5-1.3-9.6-2.5-14.2-3.7c0,7.1,0,14.3,0,21.5c0,2.5,1.6,3.1,3.8,3.1c27.2,0,54.3,0,81.5,0c3,0,3.8-0.8,3.8-3.9
				c0-5.3,0-10.7,0-16c0-1.7,0-3.3,0-4.8c-4.5,1.2-8.7,2.4-13,3.5c-1,7-3.4,10-8.3,10.2C68.4,68.8,66,66,64.3,58
				C55.2,58,46,58,36.6,58z M71.8,25.2c0.4-3.8-0.3-4.6-3.7-4.6c-11.2,0-22.4,0-33.6,0c-3.3,0-4.1,1.1-3.3,4.6
				C44.6,25.2,58.1,25.2,71.8,25.2z M69.6,58c0.7,1.8,1,3.4,1.9,4.5c0.4,0.5,2.2,0.5,3,0.1c1.8-0.9,1.6-2.8,1.4-4.6
				C73.9,58,72.2,58,69.6,58z M25.4,58c-0.3,0.2-0.5,0.4-0.8,0.6c0.7,1.4,1.2,3,2.3,4.1c0.4,0.5,2.5,0.2,2.9-0.4
				c0.8-1.2,0.9-2.8,1.4-4.4C28.8,58,27.1,58,25.4,58z"/>
			<path fill="#FFFFFF" d="M65.9,48.9c4.8,0,9.5,0,14.2,0c0-1.8,0-3.4,0-5.1c-4.8,0-9.5,0-14.2,0C65.9,45.6,65.9,47.1,65.9,48.9z
				 M21,43.7c0,1.9,0,3.5,0,5.1c4.8,0,9.5,0,14.1,0c0-1.8,0-3.4,0-5.1C30.4,43.7,25.8,43.7,21,43.7z"/>
			<path fill="#FFFFFF" d="M65.9,48.9c0-1.7,0-3.3,0-5.1c4.8,0,9.4,0,14.2,0c0,1.7,0,3.3,0,5.1C75.4,48.9,70.8,48.9,65.9,48.9z"/>
			<path fill="#FFFFFF" d="M21,43.7c4.8,0,9.4,0,14.1,0c0,1.7,0,3.3,0,5.1c-4.6,0-9.3,0-14.1,0C21,47.2,21,45.6,21,43.7z"/>
		</g>
	</g>
</g>
</svg>
