<?xml version="1.0" encoding="utf-8"?>
<!-- Generator: Adobe Illustrator 17.1.0, SVG Export Plug-In . SVG Version: 6.00 Build 0)  -->
<!DOCTYPE svg PUBLIC "-//W3C//DTD SVG 1.1//EN" "http://www.w3.org/Graphics/SVG/1.1/DTD/svg11.dtd">
<svg version="1.1" id="Layer_1" xmlns="http://www.w3.org/2000/svg" xmlns:xlink="http://www.w3.org/1999/xlink" x="0px" y="0px"
	 viewBox="0 0 50 50" enable-background="new 0 0 50 50" xml:space="preserve">
<g id="user">
	<path fill="#FFFFFF" d="M35.4,26.6c0.3-1,0.5-2,0.5-3.1V12.3c0-6.1-5-11.1-11.1-11.1c-6.1,0-11.1,5-11.1,11.1v11.2
		c0,1.1,0.2,2.1,0.5,3.1c-2.9,0.9-5.6,2.7-7.7,5.3c-3.1,3.8-4.8,8.9-4.8,14.3c0,0,0,0,0,0c0,0.9,0.8,1.7,1.7,1.7h42.7
		c0.7,0,1.3-0.4,1.6-1.1c0.1-0.2,0.1-0.4,0.1-0.7C47.9,36.9,42.7,28.9,35.4,26.6z M17.2,12.3c0-4.2,3.4-7.7,7.7-7.7
		c4.2,0,7.7,3.4,7.7,7.7v11.2c0,4.2-3.4,7.7-7.7,7.7c-4.2,0-7.7-3.4-7.7-7.7V12.3z M9.2,34.1c1.8-2.2,4.1-3.7,6.5-4.4
		c2,2.9,5.4,4.9,9.2,4.9c3.8,0,7.2-1.9,9.2-4.9c5.6,1.6,9.8,7.5,10.4,14.8H5.3C5.6,40.5,6.9,36.9,9.2,34.1z"/>
</g>
</svg>
