<?xml version="1.0" encoding="utf-8"?>
<!-- Generator: Adobe Illustrator 17.1.0, SVG Export Plug-In . SVG Version: 6.00 Build 0)  -->
<!DOCTYPE svg PUBLIC "-//W3C//DTD SVG 1.1//EN" "http://www.w3.org/Graphics/SVG/1.1/DTD/svg11.dtd">
<svg version="1.1" id="Layer_1" xmlns="http://www.w3.org/2000/svg" xmlns:xlink="http://www.w3.org/1999/xlink" x="0px" y="0px"
	 viewBox="0 0 100 100" enable-background="new 0 0 100 100" xml:space="preserve">
<g id="ZOgeYZ.tif">
	<g>
		<path fill="#FFFFFF" d="M26.478,54.381c0-11.001-0.264-21.677,0.069-32.333C26.935,9.635,37.879-0.147,50.612,0.001
			C63.075,0.146,73.614,10.204,73.94,22.592c0.227,8.638,0.086,17.288,0.004,25.931c-0.017,1.842-0.492,3.681-0.757,5.533
			c2.44,1.274,5.007,2.332,7.273,3.843c11.19,7.465,16.732,18.377,18.69,31.363c0.33,2.195,0.479,4.438,0.466,6.657
			c-0.015,2.558-1.439,3.882-4.002,4.063c-0.621,0.044-1.247,0.015-1.871,0.015c-29.052,0.001-58.104,0.001-87.156-0.001
			c-4.918,0-6.028-1.031-5.739-6.018c0.853-14.692,6.018-27.236,18.576-35.849C21.748,56.535,24.425,55.456,26.478,54.381z
			 M8.906,92.35c27.543,0,55.101,0,83.094,0c-0.491-2.646-0.76-5.116-1.419-7.476C87.7,74.557,82.309,66.209,72.023,61.821
			c-1.327-0.566-2.235-0.656-3.391,0.706c-10.177,11.981-26.703,11.939-36.939-0.045c-0.898-1.051-1.62-1.312-2.916-0.873
			C17.725,65.354,7.826,80.528,8.906,92.35z M33.888,35.758c0,3.92-0.052,7.841,0.01,11.76c0.15,9.412,7.282,16.504,16.452,16.421
			c9.034-0.081,16.12-7.218,16.203-16.443c0.07-7.839,0.065-15.68,0.003-23.52C66.481,14.574,59.369,7.434,50.194,7.44
			c-9.206,0.006-16.172,7.061-16.299,16.559C33.842,27.918,33.886,31.838,33.888,35.758z"/>
	</g>
</g>
</svg>
