<?xml version="1.0" encoding="utf-8"?>
<!-- Generator: Adobe Illustrator 17.1.0, SVG Export Plug-In . SVG Version: 6.00 Build 0)  -->
<!DOCTYPE svg PUBLIC "-//W3C//DTD SVG 1.1//EN" "http://www.w3.org/Graphics/SVG/1.1/DTD/svg11.dtd">
<svg version="1.1" id="Layer_1" xmlns="http://www.w3.org/2000/svg" xmlns:xlink="http://www.w3.org/1999/xlink" x="0px" y="0px"
	 viewBox="0 0 100 100" enable-background="new 0 0 100 100" xml:space="preserve">
<g>
	<rect fill="#26A9E0" width="100" height="100"/>
	<g id="pG1CWp.tif_2_">
		<g>
			<path fill="#FFFFFF" d="M46.495,40.891c0.191-0.662,0.341-1.139,0.467-1.622c2.83-10.84,14.925-15.757,24.515-9.904
				c1.062,0.648,1.925,0.789,2.977,0.236c0.898-0.471,1.802-0.934,2.723-1.359c3.101-1.433,6.165,0.46,6.388,3.866
				c0.045,0.692,0.331,1.436,0.71,2.024c1.147,1.781,1.25,3.554,0.018,5.324c-0.831,1.194-1.655,2.475-2.761,3.375
				c-1.835,1.495-2.33,3.336-2.56,5.584c-1.859,18.172-14.844,31.795-32.841,34.316c-9.096,1.274-17.68-0.518-25.556-5.353
				c-2.235-1.372-3.056-3.352-2.331-5.442c0.728-2.099,2.588-3.086,5.171-2.935c1.852,0.109,3.715,0.021,5.573,0.021
				c0.039-0.19,0.079-0.381,0.118-0.572c-0.39-0.46-0.796-0.907-1.168-1.381c-1.736-2.215-3.27-4.51-3.434-7.471
				c-0.031-0.56-0.458-1.146-0.82-1.633c-1.906-2.562-2.974-5.438-3.29-8.598c-0.069-0.69-0.274-1.562,0.041-2.06
				c1.286-2.03,0.383-4.023,0.134-6.029c-0.403-3.248,0.175-6.321,1.645-9.223c1.833-3.618,5.288-4.064,7.949-0.989
				c3.972,4.59,8.837,7.754,14.67,9.428C45.318,40.633,45.815,40.73,46.495,40.891z M79.079,32.995
				c-0.128-0.117-0.257-0.234-0.386-0.35c-1.756,0.652-3.519,1.286-5.266,1.961c-1.175,0.454-2.043,0.236-3.08-0.608
				c-3.524-2.866-7.575-3.541-11.802-1.9c-4.294,1.667-6.869,4.905-7.495,9.515c-0.184,1.353-0.028,2.752-0.028,4.51
				c-2.334-0.418-4.577-0.694-6.754-1.234c-7.102-1.76-12.915-5.659-17.89-11.377c-2.89,6.287-1.467,11.354,3.016,16.011
				c-1.481-0.393-2.961-0.786-4.645-1.234c0.424,5.937,3.604,9.512,8.736,11.831c-1.406,0.064-2.812,0.128-4.365,0.198
				c0.811,2.44,2.135,4.398,4.177,5.618c1.94,1.159,4.127,1.906,6.159,2.814c-3.103,2.749-5.866,3.613-16.297,4.979
				c0.857,0.495,1.476,0.889,2.125,1.223C47.771,86.513,74.607,70.28,74.76,44.994c0.008-1.403,0.4-2.303,1.49-3.208
				c1.483-1.232,2.724-2.755,4.069-4.153c-0.113-0.091-0.226-0.183-0.339-0.274c-1.738,0.444-3.477,0.889-5.329,1.363
				C76.227,36.683,77.653,34.839,79.079,32.995z"/>
		</g>
	</g>
</g>
</svg>
